<svg width="24" height="23" viewBox="0 0 24 23" fill="none" xmlns="http://www.w3.org/2000/svg">
<path d="M10.4639 1.11564C10.9482 -0.37188 13.0514 -0.37188 13.5341 1.11564L15.2612 6.4326C15.3667 6.75641 15.5719 7.03855 15.8473 7.23871C16.1227 7.43886 16.4543 7.54677 16.7947 7.54702H22.3829C23.947 7.54702 24.5959 9.54977 23.332 10.4704L18.8124 13.7555C18.5364 13.9558 18.3309 14.2385 18.2254 14.5628C18.1198 14.8872 18.1196 15.2367 18.2248 15.5612L19.952 20.8782C20.4362 22.3657 18.7333 23.6045 17.4662 22.6839L12.9465 19.3987C12.6708 19.1985 12.3389 19.0906 11.9982 19.0906C11.6575 19.0906 11.3255 19.1985 11.0499 19.3987L6.5302 22.6839C5.2647 23.6045 3.56337 22.3657 4.04601 20.8782L5.77316 15.5612C5.87836 15.2367 5.87818 14.8872 5.77262 14.5628C5.66707 14.2385 5.46158 13.9558 5.18561 13.7555L0.667566 10.472C-0.596324 9.55138 0.0541842 7.54864 1.61669 7.54864H7.20331C7.54398 7.54873 7.87594 7.44097 8.15167 7.2408C8.4274 7.04062 8.63277 6.75829 8.73838 6.43421L10.4655 1.11726L10.4639 1.11564Z" fill="#FFB71A"/>
</svg>
